# xmcd
# 
# Track frame offsets:
#     150
#     16687
#     36987
#     56317
#     80712
#     100562
#     128867
#     146785
#     166167
#     182452
#     199887
#     232852
#     249130
#     267940
#     284570
#     313000
# 
# Disc length: 4452
# 
# Revision: 0
# Processed by: cddbd v1.5.2PL0 Copyright (c) Steve Scherf et al.
# Submitted via: BonkEnc v1.0.8
# 
DISCID=d1116210
DTITLE=Sade - The Best Of Sade
DYEAR=1994
DGENRE=R&B
TTITLE0=Your love is king
TTITLE1=Hang on to your love
TTITLE2=Smooth operator
TTITLE3=Jezebel
TTITLE4=The sweetest taboo
TTITLE5=Is it a crime
TTITLE6=Never as good as the first time
TTITLE7=Love is stronger than pride
TTITLE8=Paradise
TTITLE9=Nothing can come between us
TTITLE10=No ordinary love
TTITLE11=Like a tattoo
TTITLE12=Kiss of life
TTITLE13=Please send me someone to love
TTITLE14=Cherish the day
TTITLE15=Pearls
EXTD=(c) 1994 Sony Music Ltd - epic 01-477793-10/n YEAR: 1994
EXTT0=from: "Diamond Life" (1984)
EXTT1=from: "Diamond Life" (1984)
EXTT2=from: "Diamond Life" (1984)
EXTT3=from: "Promise" (1985)
EXTT4=from: "Promise" (1985)
EXTT5=from: "Promise" (1985)
EXTT6=from: "Promise" (1985)
EXTT7=from: "Stronger than pride" (1987)
EXTT8=from: "Stronger than pride" (1987)
EXTT9=from: "Stronger than pride" (1987)
EXTT10=from: "Love deluxe" (1992)
EXTT11=from: "Love deluxe" (1992)
EXTT12=from: "Love deluxe" (1992)
EXTT13=from: "Love deluxe" (1992)
EXTT14=(1993)
EXTT15=from: "Love deluxe" (1992)
PLAYORDER=
